<svg xmlns="http://www.w3.org/2000/svg" width="30" height="30" viewBox="0 0 30 30"><defs><style>.a{fill:#22d6bc;}.b{fill:#f2f2f2;}</style></defs><g transform="translate(0 0)"><path class="a" d="M306.465,285.4l-3.216,18.562a1.629,1.629,0,0,1-1.43,1.175L286.947,302.5l-8.8,9.61.824-4.76,6.419-7.011,14.872,2.639a1.63,1.63,0,0,0,1.43-1.176l2.985-17.229.663-.131.18-.036h.005C305.606,284.4,306.618,284.4,306.465,285.4Z" transform="translate(-276.48 -282.108)"/><path class="b" d="M272.685,238.953l-.23,1.331-2.985,17.23a1.63,1.63,0,0,1-1.43,1.176l-14.873-2.639-6.419,7.011-2.378,2.6,3.585-20.685a3.858,3.858,0,0,1,3.22-2.958l.015,0,20.375-4.021.179-.035h.005C271.827,237.953,272.835,237.949,272.685,238.953Z" transform="translate(-244.37 -237.955)"/></g></svg>